<svg xmlns="http://www.w3.org/2000/svg"
     width="340"
     height="110"
     viewBox="0 0 340 110"
     fill="none">
    <path d="M0 5.29974V110H340V25.1734C332.623 18.5489 316.059 4.42802 308.817 0.941134C299.763 -3.41748 296.746 7.82191 281.657 25.1734C271.441 36.9217 260.023 32.9268 253.504 27.9153C251.368 26.2737 249.173 24.6601 246.667 23.6713L235.448 19.244C228.706 16.5832 221.253 18.7769 214.693 21.858C209.535 24.2799 203.88 24.6981 200.178 19.0406C196.301 13.1179 189.07 9.52054 182.392 7.49032C175.106 5.27513 167.398 7.02696 160.551 10.3621C151.001 15.0143 138.84 21.0086 130.824 25.1734C116.428 32.6525 111.81 24.4255 99.3161 14.8523C86.8217 5.27901 73.2409 16.7968 64.8208 19.0406C56.4007 21.2843 47.9806 10.3648 46.0793 7.82191C44.178 5.27901 33.0417 8.56982 27.3377 7.82191C22.7746 7.22358 21.097 -0.368895 14.6974 0.0226928L0 5.29974Z"
          fill="url(#paint0_linear_7719_133083)" />
    <defs>
        <linearGradient id="paint0_linear_7719_133083"
                        x1="170"
                        y1="0"
                        x2="170"
                        y2="110"
                        gradientUnits="userSpaceOnUse">
            <stop stop-color="#ADB7F9" />
            <stop offset="1"
                  stop-color="#B1B9F8"
                  stop-opacity="0" />
        </linearGradient>
    </defs>
</svg>