<svg xmlns="http://www.w3.org/2000/svg"
     width="340"
     height="122"
     viewBox="0 0 340 122"
     fill="none">
    <path d="M2.39194 67.3233L0 68.3255V132.264H385V6.44362L382.612 15.272L380.22 18.2903L377.828 13.2438L375.436 2.82877L373.045 0.0371094L370.653 6.26466L368.261 20.0082L365.869 35.8873L363.477 31.5447L361.085 43.8209L358.693 56.622L356.301 34.5392L353.909 13.9835L351.517 19.7696L349.125 26.5698L346.733 25.1621L344.341 22.4897L341.949 29.2183L339.557 45.2167L337.165 44.2504L334.773 41.745L332.381 53.9496L329.989 33.9904L327.597 25.3172L325.206 29.8148L322.814 48.1157L320.422 43.2005L318.03 36.0901L315.638 26.7965L313.246 22.6806L310.854 36.2333L308.462 19.3401L306.07 20.7718L303.678 31.9026L301.286 28.0015L298.894 27.8464L296.502 32.9048L294.11 22.1795L291.718 25.007L289.326 38.8937L286.934 46.4455L284.542 36.8059L282.15 27.9418L279.758 46.0041L277.367 53.5678L274.975 53.0429L272.583 29.7671L270.191 37.1519L267.799 40.6117L265.407 55.466L263.015 68.9591L260.623 38.4046L258.231 30.8886L255.839 47.5908L253.447 35.5771L251.055 45.8251L248.663 51.146L246.271 56.4072L243.879 54.7847L241.487 29.4092L239.095 38.2018L236.703 35.2431L234.311 34.1455L231.919 39.0965L229.528 27.0113L227.136 31.2107L224.744 33.9188L222.352 31.1868L219.96 37.2712L217.667 35.0045L215.275 31.7833L212.884 32.1174L210.492 39.6334L208.1 30.7215L205.708 40.8025L203.316 35.6487L200.924 38.667L198.532 29.0513L196.14 25.9614L193.748 43.9282L191.356 42.2222L188.964 43.2124L186.572 34.8852L184.18 41.0411L181.788 36.4242L179.396 45.3002L177.004 44.2981L174.612 53.3889L172.22 51.4443L169.828 53.2815L167.437 34.3483L165.045 33.0956L162.653 49.5593L160.261 37.3309L157.869 55.2619L155.477 40.218L153.085 35.9947L150.693 41.4826L148.301 41.8047L145.909 44.1669L143.517 55.8465L141.125 64.6775L138.733 58.5692L136.341 33.8115L133.949 53.3173L131.557 38.9534L129.165 47.6743L126.773 38.0586L124.381 44.2265L121.989 57.5287L119.598 61.6326L117.206 61.2986L114.814 60.7737L112.422 53.1741L110.03 66.0349L107.638 48.7719L105.246 63.6011L102.854 51.9095L100.462 44.143L98.07 79.5041L95.678 90.3367L93.286 93.5459L90.8941 83.4172L88.5021 73.1691L86.1102 60.5709L83.7183 72.3937L81.3263 69.0651L78.9343 73.5032L76.5424 65.1282L74.1505 71.1887L71.7585 53.0668L69.3665 48.8793L66.9746 68.3613L64.5827 90.0384L62.1907 60.6066L59.7988 69.3395L57.4068 60.8095L55.0148 51.0386L52.6229 80.9953L50.231 74.3741L47.839 62.5274L45.4471 80.6613L43.0551 82.6417L40.6632 87.2587L38.2712 90.3367L35.8792 62.3127L33.4873 65.9752L31.0954 88.1534L28.7034 70.3417L26.3114 65.5099L23.9195 80.2676L21.5275 85.3498L19.1356 58.7217L16.7437 68.8385L14.3517 71.308L11.9597 65.9394L9.56781 67.8005L7.17587 80.8044L4.78387 79.5518L2.39194 67.3233Z"
          fill="url(#paint0_linear_7719_133102)" />
    <defs>
        <linearGradient id="paint0_linear_7719_133102"
                        x1="192.5"
                        y1="0.0371094"
                        x2="192.5"
                        y2="132.264"
                        gradientUnits="userSpaceOnUse">
            <stop stop-color="#ADB7F9" />
            <stop offset="1"
                  stop-color="#B1B9F8"
                  stop-opacity="0" />
        </linearGradient>
    </defs>
</svg>